REM DIRINDEX 1\2,1\4,1\3\5,1\3\6,1\3\7
REM DIRNAME cjc082,folder01,folder02,folder03,folder04,folder05,folder06
TITLE ""
FILE "CD3Track05.mp3" MP3
  TRACK 01 AUDIO
    TITLE "0:"
    INDEX 01 00:00:00
  TRACK 02 AUDIO
    TITLE "5:cjc082_2381"
    INDEX 01 00:00:25
  TRACK 03 AUDIO
    TITLE "0:"
    INDEX 01 00:01:34
  TRACK 04 AUDIO
    TITLE "6:cjc082_2382"
    INDEX 01 00:02:02
  TRACK 05 AUDIO
    TITLE "0:"
    INDEX 01 00:03:17
  TRACK 06 AUDIO
    TITLE "5:cjc082_2383"
    INDEX 01 00:03:61
  TRACK 07 AUDIO
    TITLE "0:"
    INDEX 01 00:05:16
  TRACK 08 AUDIO
    TITLE "6:cjc082_2384"
    INDEX 01 00:05:63
  TRACK 09 AUDIO
    TITLE "0:"
    INDEX 01 00:07:13
  TRACK 10 AUDIO
    TITLE "5:cjc082_2385"
    INDEX 01 00:07:56
  TRACK 11 AUDIO
    TITLE "0:"
    INDEX 01 00:08:64
  TRACK 12 AUDIO
    TITLE "6:cjc082_2386"
    INDEX 01 00:09:40
  TRACK 13 AUDIO
    TITLE "0:"
    INDEX 01 00:12:56
  TRACK 14 AUDIO
    TITLE "5:cjc082_2387"
    INDEX 01 00:13:28
  TRACK 15 AUDIO
    TITLE "0:"
    INDEX 01 00:15:30
  TRACK 16 AUDIO
    TITLE "6:cjc082_2388"
    INDEX 01 00:16:04
  TRACK 17 AUDIO
    TITLE "0:"
    INDEX 01 00:18:60
  TRACK 18 AUDIO
    TITLE "5:cjc082_2389"
    INDEX 01 00:19:26
  TRACK 19 AUDIO
    TITLE "0:"
    INDEX 01 00:20:39
  TRACK 20 AUDIO
    TITLE "6:cjc082_2390"
    INDEX 01 00:21:15
  TRACK 21 AUDIO
    TITLE "0:"
    INDEX 01 00:22:36
  TRACK 22 AUDIO
    TITLE "5:cjc082_2391"
    INDEX 01 00:23:06
  TRACK 23 AUDIO
    TITLE "0:"
    INDEX 01 00:24:37
  TRACK 24 AUDIO
    TITLE "6:cjc082_2392"
    INDEX 01 00:25:09
  TRACK 25 AUDIO
    TITLE "0:"
    INDEX 01 00:26:09
  TRACK 26 AUDIO
    TITLE "5:cjc082_2393"
    INDEX 01 00:26:52
  TRACK 27 AUDIO
    TITLE "0:"
    INDEX 01 00:28:04
  TRACK 28 AUDIO
    TITLE "6:cjc082_2394"
    INDEX 01 00:28:53
  TRACK 29 AUDIO
    TITLE "0:"
    INDEX 01 00:30:42
  TRACK 30 AUDIO
    TITLE "5:cjc082_2395"
    INDEX 01 00:31:14
  TRACK 31 AUDIO
    TITLE "0:"
    INDEX 01 00:32:35
  TRACK 32 AUDIO
    TITLE "6:cjc082_2396"
    INDEX 01 00:33:15
  TRACK 33 AUDIO
    TITLE "0:"
    INDEX 01 00:35:02
  TRACK 34 AUDIO
    TITLE "5:cjc082_2397"
    INDEX 01 00:35:45
  TRACK 35 AUDIO
    TITLE "0:"
    INDEX 01 00:36:68
  TRACK 36 AUDIO
    TITLE "6:cjc082_2398"
    INDEX 01 00:37:40
  TRACK 37 AUDIO
    TITLE "0:"
    INDEX 01 00:38:49
  TRACK 38 AUDIO
    TITLE "5:cjc082_2399"
    INDEX 01 00:39:23
  TRACK 39 AUDIO
    TITLE "0:"
    INDEX 01 00:40:64
  TRACK 40 AUDIO
    TITLE "6:cjc082_2400"
    INDEX 01 00:41:38
  TRACK 41 AUDIO
    TITLE "0:"
    INDEX 01 00:42:51
  TRACK 42 AUDIO
    TITLE "5:cjc082_2401"
    INDEX 01 00:43:19
  TRACK 43 AUDIO
    TITLE "0:"
    INDEX 01 00:44:30
  TRACK 44 AUDIO
    TITLE "6:cjc082_2402"
    INDEX 01 00:45:04
  TRACK 45 AUDIO
    TITLE "0:"
    INDEX 01 00:48:02
  TRACK 46 AUDIO
    TITLE "5:cjc082_2403"
    INDEX 01 00:48:48
  TRACK 47 AUDIO
    TITLE "0:"
    INDEX 01 00:50:11
  TRACK 48 AUDIO
    TITLE "6:cjc082_2404"
    INDEX 01 00:50:56
  TRACK 49 AUDIO
    TITLE "0:"
    INDEX 01 00:52:08
  TRACK 50 AUDIO
    TITLE "5:cjc082_2405"
    INDEX 01 00:52:53
  TRACK 51 AUDIO
    TITLE "0:"
    INDEX 01 00:54:32
  TRACK 52 AUDIO
    TITLE "6:cjc082_2406"
    INDEX 01 00:55:08
  TRACK 53 AUDIO
    TITLE "0:"
    INDEX 01 00:57:09
  TRACK 54 AUDIO
    TITLE "5:cjc082_2407"
    INDEX 01 00:57:54
  TRACK 55 AUDIO
    TITLE "0:"
    INDEX 01 00:59:18
  TRACK 56 AUDIO
    TITLE "6:cjc082_2408"
    INDEX 01 00:59:71
  TRACK 57 AUDIO
    TITLE "0:"
    INDEX 01 01:02:28
  TRACK 58 AUDIO
    TITLE "7:cjc082_2409"
    INDEX 01 01:03:69
  TRACK 59 AUDIO
    TITLE "0:"
    INDEX 01 01:14:65
